<svg width="560" height="420" viewBox="0 0 560 420" fill="none" xmlns="http://www.w3.org/2000/svg"><path d="M0 27.616c0-9.666 0-14.5 1.881-18.192a17.26 17.26 0 017.543-7.543C13.116 0 17.95 0 27.616 0h504.768c9.666 0 14.5 0 18.192 1.881a17.265 17.265 0 017.543 7.543C560 13.116 560 17.95 560 27.616v364.768c0 9.666 0 14.5-1.881 18.192a17.27 17.27 0 01-7.543 7.543C546.884 420 542.05 420 532.384 420H27.616c-9.666 0-14.5 0-18.192-1.881a17.265 17.265 0 01-7.543-7.543C0 406.884 0 402.05 0 392.384V27.616z" fill="#F2F2F2"/><rect x="123" y="37" width="314" height="313" rx="10" fill="#fff"/><path d="M274.444 88.555h22.223s3.333 0 3.333-4.445c0-2.222 0-6.666-1.111-7.778-1.111-1.11-8.889-7.777-12.222-7.777H280c-3.333 0-11.111 7.777-11.111 7.777l-4.445 1.112s-3.333 1.11-3.333 3.333v3.333S260 84.486 260 86.285c0 2.27 2.222 2.27 2.222 2.27h12.222z" fill="#4C34E0"/><path d="M282.222 70.777H280c-2.222 0-8.889 6.667-8.889 6.667s5.553-.292 11.111-.577v-6.09zm11.112 3.334c-1.112-1.111-5.556-3.334-7.778-3.334h-1.111v5.977c4.456-.227 8.424-.421 8.889-.421 1.111 0 1.111-1.111 0-2.222z" fill="#BBDDF5"/><path d="M271.111 91.889a4.445 4.445 0 100-8.89 4.445 4.445 0 000 8.89z" fill="#292F33"/><path d="M271.111 89.667a2.222 2.222 0 100-4.444 2.222 2.222 0 000 4.444z" fill="#CCD6DD"/><path d="M290 91.889a4.445 4.445 0 100-8.89 4.445 4.445 0 000 8.89z" fill="#292F33"/><path d="M290 89.667a2.222 2.222 0 100-4.444 2.222 2.222 0 000 4.444z" fill="#CCD6DD"/><path d="M212.048 110.199H203v16.8h3.336v-5.976h5.64c3.72 0 5.904-2.136 5.904-5.424 0-3.24-2.208-5.4-5.832-5.4zm-.36 7.848h-5.352v-4.872h5.424c1.68 0 2.616.984 2.616 2.424 0 1.464-.888 2.448-2.688 2.448zm18.102 5.064c-.408.984-1.584 1.512-3.36 1.512-2.424 0-3.792-1.104-4.008-2.712h10.512c.048-.336.072-.672.072-1.008-.024-4.32-3.288-6.144-6.792-6.144-4.056 0-7.104 2.424-7.104 6.336 0 3.72 2.928 6.144 7.32 6.144 3.672 0 6.12-1.632 6.624-4.128h-3.264zm-3.576-5.736c2.112 0 3.336.936 3.528 2.256h-7.248c.312-1.272 1.536-2.256 3.72-2.256zm22.494-2.376h-3.336v5.952c0 2.352-1.512 3.408-3.528 3.408s-3.36-1.056-3.36-3.288v-6.072h-3.312v6.84c0 3.408 2.136 5.4 5.688 5.4 2.232 0 3.48-.816 4.32-1.752h.192l.288 1.512h3.048v-12zm11.089 9.288h-4.008c-.72 0-1.584-.192-1.584-.888 0-.336.168-.624.576-.816.816.24 1.776.36 2.832.36 3.528 0 6.192-1.44 6.192-4.056 0-.792-.312-1.56-.888-2.184.864-.36 1.632-.816 2.04-1.2l-1.584-1.896c-.552.648-1.512 1.368-2.472 1.752-.936-.384-2.088-.6-3.36-.6-3.864 0-6.12 1.776-6.12 4.128 0 1.176.552 2.136 1.488 2.832-.912.48-1.704 1.272-1.704 2.448 0 .984.528 1.824 1.44 2.28l-1.824 1.632c.408 2.088 2.328 3.96 6.864 3.96 4.464 0 6.744-1.68 6.744-4.2 0-2.184-1.656-3.552-4.632-3.552zm-2.184-7.128c1.92 0 2.928.672 2.928 1.704 0 .984-1.008 1.656-2.928 1.656-1.872 0-2.904-.672-2.904-1.656 0-1.032 1.032-1.704 2.904-1.704zm.144 12.432c-2.112 0-3.336-.648-3.672-1.44l1.464-1.32h3.84c.936 0 1.776.336 1.776 1.2 0 1.008-1.296 1.56-3.408 1.56zm18.627-6.48c-.408.984-1.584 1.512-3.36 1.512-2.424 0-3.792-1.104-4.008-2.712h10.512c.048-.336.072-.672.072-1.008-.024-4.32-3.288-6.144-6.792-6.144-4.056 0-7.104 2.424-7.104 6.336 0 3.72 2.928 6.144 7.32 6.144 3.672 0 6.12-1.632 6.624-4.128h-3.264zm-3.576-5.736c2.112 0 3.336.936 3.528 2.256h-7.248c.312-1.272 1.536-2.256 3.72-2.256zm15.945 9.864c4.368 0 7.44-2.52 7.44-6.24 0-3.744-3.072-6.24-7.44-6.24s-7.44 2.496-7.44 6.24c0 3.72 3.096 6.24 7.44 6.24zm0-2.88c-2.64 0-4.128-1.488-4.128-3.36 0-1.896 1.488-3.36 4.128-3.36s4.128 1.464 4.128 3.36c0 1.872-1.488 3.36-4.128 3.36zm15.399 2.88c.888 0 1.776-.12 2.376-.264v-2.52a7.09 7.09 0 01-1.368.168c-1.656 0-1.8-.936-1.8-1.656v-5.352h3.648v-2.616h-3.648v-3.384h-3.072v1.512c0 1.32-.576 1.872-2.04 1.872h-1.176v2.616h2.976v5.928c0 2.016 1.032 3.696 4.104 3.696zm14.925-2.976c.24-1.008.984-1.824 2.304-2.496l2.712-1.512c1.104-.576 3.192-1.704 3.192-4.392 0-2.88-2.4-4.488-5.712-4.488-4.368 0-6.36 2.736-6.456 5.064h3.72c.048-1.152.936-2.328 2.592-2.328 1.32 0 2.232.768 2.232 1.896 0 1.152-.984 1.752-2.088 2.328l-2.688 1.44c-2.472 1.272-3.792 3.48-3.792 6.12v1.104h12.264v-2.736h-8.28zm17.314 2.976c3.888 0 6.648-2.592 6.648-7.92 0-5.328-2.76-7.944-6.672-7.944-3.888 0-6.72 2.616-6.72 7.92 0 5.328 2.832 7.944 6.744 7.944zm.024-2.808c-1.8 0-3.216-1.44-3.216-5.112s1.416-5.136 3.192-5.136c1.848 0 3.096 1.512 3.096 5.16 0 3.6-1.224 5.088-3.072 5.088zm8.209-12.792v2.808h7.848v.144c-2.232 2.64-4.44 6.216-5.088 12.408h3.48c.576-5.904 3.528-10.416 6.528-13.344v-2.016h-12.768z" fill="#737373"/><rect x="196" y="149" width="104" height="12" rx="6" fill="#C4C4C4"/><rect x="321" y="149" width="28" height="12" rx="6" fill="#C4C4C4"/><path d="M363.589 158.229c-.864.594-1.98.9-3.456.9-1.836 0-3.006-.54-3.636-1.53h4.104l.36-1.728h-5.022a7.815 7.815 0 01-.036-.648c0-.198 0-.396.018-.594h5.832l.396-1.764h-5.67c.63-.99 1.818-1.53 3.654-1.53 1.35 0 2.412.396 3.24.9l.828-1.746c-.792-.612-2.34-1.188-4.14-1.188-3.06 0-5.202 1.332-6.084 3.564h-1.602v1.764h1.206c-.018.216-.036.45-.036.684 0 .198 0 .378.018.558h-1.188v1.728h1.548c.828 2.34 3.06 3.582 6.102 3.582 1.764 0 3.402-.414 4.374-1.17l-.81-1.782z" fill="#C4C4C4"/><rect x="147" y="183" width="266" height="50" rx="25" fill="#fff"/><rect x="194" y="202" width="126" height="12" rx="6" fill="#C4C4C4"/><path d="M394.17 199.294a1.82 1.82 0 00-2.519.536l-7.93 12.222-3.664-3.387a1.82 1.82 0 00-2.472 2.674l5.251 4.856a1.818 1.818 0 002.765-.345c.242-.369 9.106-14.037 9.106-14.037a1.822 1.822 0 00-.537-2.519z" fill="#38836D"/><path fill-rule="evenodd" clip-rule="evenodd" d="M178.314 212.9l-2.146-2.146c.523-.79.832-1.735.832-2.754 0-.955-.283-1.839-.748-2.599l2.165-2.164a7.955 7.955 0 01-.103 9.663zm-11.215 1.414l2.147-2.145a4.97 4.97 0 005.507 0l2.146 2.145a7.96 7.96 0 01-9.8 0zM164 208c0-1.849.632-3.545 1.685-4.9l2.147 2.146A4.966 4.966 0 00167 208c0 1.019.308 1.964.832 2.754l-2.147 2.146A7.954 7.954 0 01164 208zm5 0a3 3 0 116 0 3 3 0 11-6 0zm8.037-6.211l-2.145 2.145a4.964 4.964 0 00-5.646-.102l-2.147-2.146A7.957 7.957 0 01172 200c1.91 0 3.662.671 5.037 1.789zM172 198c-5.524 0-10 4.477-10 10s4.477 10 10 10c5.522 0 10-4.478 10-10s-4.478-10-10-10z" fill="#737373"/><rect x="147" y="183" width="266" height="50" rx="25" stroke="#E5E5E5" stroke-width="2"/><rect x="147" y="245" width="266" height="50" rx="25" fill="#fff"/><rect x="194" y="264" width="126" height="12" rx="6" fill="#C4C4C4"/><path d="M394.17 261.294a1.82 1.82 0 00-2.519.536l-7.93 12.222-3.664-3.387a1.82 1.82 0 00-2.472 2.674l5.251 4.856a1.818 1.818 0 002.765-.345c.242-.369 9.106-14.037 9.106-14.037a1.822 1.822 0 00-.537-2.519z" fill="#38836D"/><g clip-path="url(#a)"><path fill-rule="evenodd" clip-rule="evenodd" d="M173.916 261.906a2.001 2.001 0 00-3.832 0L165.256 278l-2.256.001a1 1 0 000 2h18a1 1 0 000-2l-2.257-.001-4.827-16.094zM168.244 275h7.511l.901 3.001h-9.312l.9-3.001zm2.1-6.999l1.656-5.52 1.656 5.52h-3.312zm-.6 2h4.511l.9 2.999h-6.311l.9-2.999z" fill="#737373"/></g><rect x="147" y="245" width="266" height="50" rx="25" stroke="#E5E5E5" stroke-width="2"/><circle cx="280" cy="349" r="35" fill="#4C34E0"/><path fill-rule="evenodd" clip-rule="evenodd" d="M289.5 349.5c0 .69-.559 1.25-1.25 1.25h-7.5v7.5a1.25 1.25 0 11-2.5 0v-7.5h-7.5a1.25 1.25 0 110-2.5h7.5v-7.5a1.25 1.25 0 112.5 0v7.5h7.5c.691 0 1.25.56 1.25 1.25z" fill="#fff"/><defs><clipPath id="a"><path fill="#fff" transform="translate(162 260)" d="M0 0h20v20H0z"/></clipPath></defs></svg>