<svg width="560" height="420" viewBox="0 0 560 420" fill="none" xmlns="http://www.w3.org/2000/svg"><g clip-path="url(#argument-theory_svg__a)"><path d="M0 10C0 4.477 4.477 0 10 0h540c5.523 0 10 4.477 10 10v400c0 5.523-4.477 10-10 10H10c-5.523 0-10-4.477-10-10V10z" fill="#F2F2F2"/><path d="M80 33c0-16.802 0-25.202 3.27-31.62a30 30 0 0113.11-13.11C102.798-15 111.198-15 128-15h143c13.04 0 19.56 0 24.751 1.993a29.998 29.998 0 0117.256 17.256C315 9.439 315 15.959 315 29c0 13.04 0 19.56-1.993 24.751a29.998 29.998 0 01-17.256 17.256C290.56 73 284.04 73 271 73H92.8c-4.48 0-6.72 0-8.432-.872a8 8 0 01-3.496-3.496C80 66.92 80 64.68 80 60.2V33z" fill="#CCC"/><rect x="104" y="9" width="181" height="8" rx="4" fill="#737373"/><rect x="104" y="41" width="67" height="8" rx="4" fill="#737373"/><path d="M186 39s2-8 5-8h11c3 0 7 7 7 7s8 1 8 5v2c0 .09-.021.175-.026.263A1.992 1.992 0 01218 47a2 2 0 01-2 2h-30a4 4 0 01-4-4v-2a4 4 0 014-4z" fill="#E1E8ED"/><path d="M217 43v2c0 .09-.021.175-.026.263A1.992 1.992 0 01218 47a2 2 0 01-2 2h-30a4 4 0 01-4-4v-2c0-.348.059-.68.142-1h34.657c.117.312.201.64.201 1z" fill="#292F33"/><path d="M202.09 49a5.988 5.988 0 01-.09-1 6 6 0 0112 0c0 .342-.035.674-.09 1h-11.82zm-17 0a5.988 5.988 0 01-.09-1 6 6 0 0112 0c0 .342-.035.674-.09 1h-11.82z" fill="#66757F"/><path d="M208 52a4 4 0 110-8 4 4 0 010 8z" fill="#292F33"/><path d="M208 50a2 2 0 110-4 2 2 0 010 4z" fill="#E1E8ED"/><path d="M191 52a4 4 0 110-8 4 4 0 010 8z" fill="#292F33"/><path d="M191 50a2 2 0 110-4 2 2 0 010 4z" fill="#E1E8ED"/><path d="M197 30a1 1 0 001 1h3a1 1 0 000-2h-3a1 1 0 00-1 1z" fill="#DD2E44"/><path d="M196 30a1 1 0 001 1h2a1 1 0 000-2h-2a1 1 0 00-1 1zm-1 8h-7s2-5 3-5h4v5zm2-5h5c2 0 5 5 5 5h-10v-5z" fill="#55ACEE"/><path d="M417.931 162.77h.92v-15.677c0-7.687 0-13.511-.379-18.149-.38-4.656-1.148-8.197-2.728-11.299a28.509 28.509 0 00-12.457-12.458c-3.102-1.58-6.643-2.347-11.3-2.728-4.638-.379-10.462-.379-18.15-.379H186.164c-7.688 0-13.513 0-18.15.379-4.657.381-8.198 1.148-11.3 2.728a28.509 28.509 0 00-12.457 12.458c-1.581 3.102-2.348 6.643-2.728 11.299-.379 4.638-.379 10.462-.379 18.151v15.675h276.781z" fill="#fff"/><path d="M186.13 140.471h2.895l-5.789-13.332h-3.257l-5.79 13.332h2.895l1.314-3.104h6.418l1.314 3.104zm-6.78-5.333l2.171-5.085h.172l2.171 5.085h-4.514z" fill="#737373"/><rect x="218.391" y="128.747" width="111.264" height="7.356" rx="3.678" fill="#C4C4C4"/><path d="M417.931 162.77h.92v-15.677c0-7.687 0-13.511-.379-18.149-.38-4.656-1.148-8.197-2.728-11.299a28.509 28.509 0 00-12.457-12.458c-3.102-1.58-6.643-2.347-11.3-2.728-4.638-.379-10.462-.379-18.15-.379H186.164c-7.688 0-13.513 0-18.15.379-4.657.381-8.198 1.148-11.3 2.728a28.509 28.509 0 00-12.457 12.458c-1.581 3.102-2.348 6.643-2.728 11.299-.379 4.638-.379 10.462-.379 18.151v15.675h276.781z" stroke="#E5E5E5" stroke-width="1.839"/><path fill="#fff" d="M141.15 160.931h277.701v60.69H141.15z"/><path d="M185.489 192.256v-.134c.914-.457 1.752-1.238 1.752-2.78 0-1.943-1.314-3.352-4.095-3.352h-7.161v13.332h7.218c2.819 0 4.533-1.353 4.533-3.752 0-2.019-1.219-2.953-2.247-3.314zm-6.857-4.095h4.248c1.009 0 1.637.647 1.637 1.6 0 .99-.571 1.638-1.676 1.638h-4.209v-3.238zm4.457 8.989h-4.457v-3.599h4.457c1.2 0 1.867.819 1.867 1.828 0 1.01-.61 1.771-1.867 1.771z" fill="#737373"/><rect x="218.391" y="187.597" width="157.241" height="7.356" rx="3.678" fill="#C4C4C4"/><path stroke="#E5E5E5" stroke-width="1.839" d="M141.15 160.931h277.701v60.69H141.15z"/><path d="M142.069 278.632h-.919v15.676c0 7.688 0 13.512.379 18.15.38 4.657 1.147 8.198 2.728 11.299a28.509 28.509 0 0012.457 12.458c3.102 1.58 6.643 2.347 11.3 2.728 4.637.379 10.462.379 18.15.379h187.673c7.688 0 13.512 0 18.15-.379 4.657-.381 8.198-1.148 11.3-2.728a28.509 28.509 0 0012.457-12.458c1.58-3.101 2.348-6.642 2.728-11.299.379-4.637.379-10.461.379-18.149v-15.677H142.069z" fill="#fff"/><path d="M182.178 303.691h-6.533v13.332h6.533c3.999 0 6.628-2.533 6.628-6.704 0-4.171-2.629-6.628-6.628-6.628zm-.096 10.894h-3.714v-8.456h3.714c2.591 0 3.943 1.599 3.943 4.152 0 2.495-1.295 4.304-3.943 4.304z" fill="#737373"/><rect x="218.391" y="305.299" width="83.678" height="7.356" rx="3.678" fill="#C4C4C4"/><path d="M142.069 278.632h-.919v15.676c0 7.688 0 13.512.379 18.15.38 4.657 1.147 8.198 2.728 11.299a28.509 28.509 0 0012.457 12.458c3.102 1.58 6.643 2.347 11.3 2.728 4.637.379 10.462.379 18.15.379h187.673c7.688 0 13.512 0 18.15-.379 4.657-.381 8.198-1.148 11.3-2.728a28.509 28.509 0 0012.457-12.458c1.58-3.101 2.348-6.642 2.728-11.299.379-4.637.379-10.461.379-18.149v-15.677H142.069z" stroke="#E5E5E5" stroke-width="1.839"/><rect x="120" y="220.701" width="320" height="58.851" rx="9.195" fill="#38836D"/><path d="M164.754 252.332h-2.582c-.397 1.076-1.622 1.838-3.525 1.838-2.417 0-4.122-1.424-4.122-3.758 0-2.217 1.54-3.823 4.138-3.823 1.771 0 2.913.761 3.327 1.903h2.582c-.43-2.664-2.83-4.071-5.925-4.071-3.989 0-6.538 2.483-6.538 5.991 0 3.41 2.367 5.926 6.538 5.926 3.26 0 5.727-1.44 6.107-4.006z" fill="#fff"/><rect opacity=".5" x="196.321" y="246.448" width="138.851" height="7.356" rx="3.678" fill="#fff"/><path d="M356.205 250.611a1.655 1.655 0 10-2.34 2.341l8.276 8.276a1.655 1.655 0 002.34 0l18.207-18.207a1.654 1.654 0 10-2.341-2.341l-17.036 17.036-7.106-7.105z" fill="#fff"/><rect x="120" y="220.701" width="320" height="58.851" rx="9.195" stroke="#38836D" stroke-width="1.839"/><path d="M366 333c0-9.689 0-14.534 1.204-18.473a27.583 27.583 0 0118.323-18.323C389.466 295 394.311 295 404 295h31.862c15.45 0 23.175 0 29.076 3.007a27.582 27.582 0 0112.055 12.055C480 315.963 480 323.688 480 339.138v20.092c0 4.12 0 6.18-.802 7.753a7.346 7.346 0 01-3.215 3.215c-1.573.802-3.633.802-7.753.802H404c-9.689 0-14.534 0-18.473-1.204a27.583 27.583 0 01-18.323-18.323C366 347.534 366 342.689 366 333z" fill="#4C34E0"/><g clip-path="url(#argument-theory_svg__b)"><path d="M439.816 340.158c-.816-1.186-.361-2.902-.564-4.796-.209-3.09-1.537-6.084-4.112-8.478l-8.773-8.157s-1.728-1.609-3.338.121c-1.607 1.728.123 3.337.123 3.337l3.705 3.447 3.213 2.987s-.805.865-4.361-2.442l-12.008-11.169s-1.73-1.607-3.339.122c-1.607 1.729.121 3.337.121 3.337l11.355 10.562c-.025-.023-.859.813-.874.799l-12.149-11.3s-1.73-1.608-3.338.121c-1.609 1.73.121 3.337.121 3.337l12.15 11.302c.014.014-.769.898-.745.92l-10.481-9.75s-1.729-1.608-3.338.121c-1.608 1.73.121 3.338.121 3.338l11.144 10.364c.102.095-.588 1.067-.46 1.185l-8.03-7.468s-1.729-1.608-3.338.122c-1.608 1.73.121 3.338.121 3.338l13.098 12.177c2.186 2.034 4.432 3.063 7.139 3.44.551.076 1.256.076 1.545.113.913.115 1.714.439 2.787 1.097 1.381.846 3.452 1.199 4.642-.074l4.059-4.341 3.747-4.009c1.189-1.272.976-2.369.057-3.703z" fill="#EF9645"/><path d="M404.16 352.705a1.174 1.174 0 01-.831-2.005l4.173-4.17a1.174 1.174 0 111.661 1.661l-4.172 4.171c-.229.229-.53.343-.831.343zm7.926 1.084a1.174 1.174 0 01-1.109-1.563l1.141-3.258a1.175 1.175 0 112.217.775l-1.141 3.258a1.174 1.174 0 01-1.108.788zm-9.008-9.009a1.176 1.176 0 01-.391-2.283l2.931-1.035a1.18 1.18 0 011.499.717 1.174 1.174 0 01-.716 1.499l-2.932 1.035a1.17 1.17 0 01-.391.067zm34.614-25.575c-.3 0-.601-.116-.83-.345a1.173 1.173 0 010-1.662l4.173-4.171a1.175 1.175 0 111.662 1.662l-4.174 4.171c-.229.231-.53.345-.831.345zm-4.892-1.994a1.175 1.175 0 01-1.109-1.564l1.139-3.258a1.175 1.175 0 012.219.775l-1.14 3.258a1.175 1.175 0 01-1.109.789zm7.218 6.784a1.176 1.176 0 01-.392-2.283l2.931-1.035a1.176 1.176 0 01.782 2.216l-2.93 1.035a1.174 1.174 0 01-.391.067z" fill="#FA743E"/><path d="M443.444 339.542c-.777-1.212-.263-2.913-.402-4.813-.106-3.094-1.331-6.132-3.825-8.612l-8.492-8.447s-1.673-1.665-3.341.009c-1.665 1.674.01 3.34.01 3.34l3.588 3.57 3.109 3.093s-.834.837-4.276-2.587c-3.444-3.425-11.625-11.568-11.625-11.568s-1.674-1.665-3.34.01c-1.666 1.673.008 3.338.008 3.338l10.993 10.939c-.024-.024-.886.783-.901.768l-11.762-11.703s-1.674-1.666-3.34.009c-1.665 1.674.008 3.339.008 3.339l11.763 11.705c.014.014-.799.87-.776.894l-10.146-10.097s-1.674-1.664-3.34.01.008 3.34.008 3.34l10.788 10.734c.098.097-.623 1.047-.5 1.17l-7.773-7.735s-1.675-1.665-3.341.009c-1.666 1.675.008 3.341.008 3.341l12.678 12.61c2.118 2.106 4.327 3.21 7.02 3.678.548.096 1.253.119 1.54.165.908.146 1.698.497 2.749 1.191 1.352.892 3.41 1.314 4.643.083l4.203-4.202 3.879-3.88c1.233-1.233 1.058-2.338.185-3.701z" fill="#FFDB5E"/></g></g><defs><clipPath id="argument-theory_svg__a"><path d="M0 10C0 4.477 4.477 0 10 0h540c5.523 0 10 4.477 10 10v400c0 5.523-4.477 10-10 10H10c-5.523 0-10-4.477-10-10V10z" fill="#fff"/></clipPath><clipPath id="argument-theory_svg__b"><path fill="#fff" transform="translate(401.862 311.552)" d="M0 0h42.299v42.299H0z"/></clipPath></defs></svg>